# xmcd
#
# Track frame offsets:
#	150
#	18778
#	35163
#	48050
#	67301
#	82781
#	98141
#	113631
#	130394
#	145883
#	161782
#	177675
#	194302
#
# Disc length: 2850 seconds
#
# Revision: 0
# Processed by: cddbd v1.5.2PL0 Copyright (c) Steve Scherf et al.
# Submitted via: EasyCDDAExtractor 10.0.3.1
#
DISCID=b30b200d
DTITLE=BOOM BOX - CZYSTA ENERGIA
DYEAR=1999
DGENRE=Pop
TTITLE0=Salsa
TTITLE1=Jej Cienie
TTITLE2=Czysta Energia
TTITLE3=Miejsce I Ślad
TTITLE4=Powiedz To
TTITLE5=Za Późno
TTITLE6=Małe Come On
TTITLE7=Rycz Mała Rycz
TTITLE8=Wszystko Dla Ciebie
TTITLE9=Wiem, wiem
TTITLE10=Co Będzie - Ja Nie Wiem
TTITLE11=Carpe Diem
TTITLE12=To Tylko Dla Ciebie
EXTD=
EXTT0=
EXTT1=
EXTT2=
EXTT3=
EXTT4=
EXTT5=
EXTT6=
EXTT7=
EXTT8=
EXTT9=
EXTT10=
EXTT11=
EXTT12=
PLAYORDER=
